<svg width="51" height="51" viewBox="0 0 51 51" fill="none" xmlns="http://www.w3.org/2000/svg">
<rect x="0.0449219" y="0.43457" width="50" height="50" rx="10" fill="white"/>
<path d="M11.0016 21.9328C10.7993 21.9347 10.6 21.8829 10.4241 21.7828C10.2951 21.7103 10.1818 21.6128 10.091 21.496C10.0001 21.3792 9.93342 21.2454 9.89487 21.1025C9.85632 20.9596 9.84665 20.8105 9.86643 20.6638C9.88622 20.5171 9.93506 20.3759 10.0101 20.2483C11.4561 17.8347 15.8558 12.2013 25.4561 12.2013C29.6164 12.2013 33.2653 13.2941 36.2961 15.4481C38.7907 17.2159 40.1888 19.217 40.8548 20.1808C40.9393 20.3023 40.9986 20.4394 41.0292 20.5842C41.0599 20.7289 41.0613 20.8784 41.0333 21.0237C41.0054 21.169 40.9486 21.3072 40.8665 21.4302C40.7843 21.5533 40.6783 21.6586 40.5548 21.7401C40.3023 21.907 39.9948 21.969 39.6974 21.913C39.4001 21.857 39.1362 21.6873 38.9617 21.4401C37.7564 19.7068 34.0813 14.4326 25.4561 14.4326C17.0371 14.4326 13.2307 19.286 11.9909 21.3673C11.8913 21.5411 11.7471 21.6852 11.5732 21.7846C11.3992 21.884 11.2019 21.9352 11.0016 21.9328Z" fill="black"/>
<path d="M30.293 43.9837C30.1972 43.9849 30.1017 43.974 30.0087 43.9515C23.0447 42.2264 20.4444 35.2647 20.3387 34.9752L20.3222 34.9114C20.2652 34.7104 18.8679 29.9365 21.0129 27.1404C21.9962 25.8654 23.4918 25.2114 25.4666 25.2114C27.3026 25.2114 28.6272 25.7822 29.5377 26.9634C30.2877 27.928 30.5877 29.1175 30.878 30.2635C31.4877 32.6501 31.928 33.9034 34.4623 34.0324C35.5754 34.0887 36.3066 33.4376 36.7214 32.8834C37.8427 31.3721 38.0377 28.9082 37.1924 26.7332C36.1064 23.9258 32.252 18.6329 25.4561 18.6329C22.555 18.6329 19.8894 19.5652 17.7518 21.3173C15.9825 22.7686 14.5807 24.8176 13.9057 26.9237C12.6539 30.8448 14.2957 37.0085 14.3115 37.0647C14.3498 37.2082 14.359 37.3579 14.3386 37.5049C14.3182 37.652 14.2685 37.7935 14.1925 37.9211C14.1165 38.0487 14.0158 38.1597 13.8962 38.2477C13.7766 38.3357 13.6406 38.3989 13.4962 38.4335C13.2045 38.5111 12.894 38.4713 12.6313 38.3227C12.3685 38.1741 12.1745 37.9285 12.0907 37.6385C12.0156 37.3573 10.2621 30.7833 11.7081 26.2517C13.2832 21.3413 18.1441 16.3911 25.4583 16.3911C28.8387 16.3911 32.0323 17.5401 34.6978 19.71C36.7619 21.3975 38.448 23.6641 39.33 25.9299C40.4513 28.8227 40.1505 32.0696 38.5657 34.1907C37.5097 35.6052 36.0059 36.3447 34.3401 36.2645C30.0005 36.047 29.2204 33.0176 28.6519 30.8081C28.0669 28.5415 27.6926 27.4487 25.4583 27.4487C24.2313 27.4487 23.3695 27.7862 22.8332 28.4852C22.102 29.4415 22.045 30.9363 22.126 32.0208C22.1791 32.7764 22.3073 33.5249 22.5085 34.2552C22.687 34.7052 25.0113 40.4053 30.578 41.7846C30.7218 41.8187 30.8575 41.8811 30.9771 41.968C31.0967 42.055 31.1978 42.1649 31.2746 42.2912C31.3513 42.4176 31.4022 42.558 31.4242 42.7042C31.4463 42.8504 31.4391 42.9995 31.403 43.1429C31.3351 43.385 31.1898 43.5982 30.9894 43.75C30.789 43.9018 30.5444 43.9839 30.293 43.9837Z" fill="black"/>
<path d="M21.3543 43.4691C21.1982 43.4694 21.0436 43.4383 20.8998 43.3776C20.756 43.3169 20.6259 43.2279 20.5172 43.1158C17.7301 40.1907 16.1536 36.9199 15.5603 32.83V32.8082C15.2273 30.1007 15.7148 26.2673 18.1037 23.6317C19.867 21.6869 22.3458 20.6984 25.4584 20.6984C29.1395 20.6984 32.0323 22.4099 33.8361 25.6403C35.1449 27.9871 35.4044 30.3257 35.4112 30.4217C35.4249 30.5697 35.4093 30.719 35.3652 30.8609C35.3212 31.0029 35.2496 31.1348 35.1545 31.2491C35.0594 31.3633 34.9427 31.4577 34.811 31.5268C34.6794 31.5959 34.5355 31.6383 34.3874 31.6517C34.0887 31.6841 33.7892 31.5978 33.5536 31.4113C33.318 31.2248 33.1651 30.9531 33.1281 30.6549C32.9306 29.2517 32.4765 27.8969 31.7886 26.658C30.3905 24.1912 28.2635 22.9372 25.4501 22.9372C23.0201 22.9372 21.1187 23.6685 19.8107 25.1122C17.9251 27.1936 17.5606 30.3999 17.8194 32.521C18.3392 36.1376 19.729 39.0147 22.183 41.5858C22.2855 41.6923 22.3654 41.8184 22.4181 41.9564C22.4709 42.0945 22.4953 42.2418 22.49 42.3895C22.4847 42.5372 22.4497 42.6823 22.3872 42.8162C22.3247 42.9502 22.2358 43.0701 22.126 43.1691C21.9145 43.3608 21.6397 43.4676 21.3543 43.4691Z" fill="black"/>
<path d="M34.1938 40.247C31.7563 40.247 29.684 39.572 28.0257 38.2302C24.6941 35.5459 24.3205 31.174 24.304 30.9895C24.2806 30.6866 24.3784 30.3869 24.5759 30.1561C24.7735 29.9254 25.0546 29.7826 25.3575 29.7591C25.6603 29.7356 25.9601 29.8334 26.1908 30.031C26.4216 30.2285 26.5644 30.5096 26.5879 30.8125C26.5961 30.877 26.9291 34.4531 29.4972 36.5127C31.0168 37.7262 33.0478 38.2077 35.5506 37.9265C35.8498 37.8902 36.1511 37.9738 36.3888 38.159C36.6264 38.3443 36.7811 38.6161 36.8189 38.915C36.8353 39.0627 36.8221 39.2121 36.7801 39.3546C36.7381 39.4972 36.6682 39.6299 36.5743 39.7451C36.4805 39.8603 36.3647 39.9556 36.2336 40.0256C36.1025 40.0955 35.9588 40.1387 35.8109 40.1525C35.2742 40.2152 34.7342 40.2467 34.1938 40.247ZM36.1199 10.4419C35.1689 9.8231 31.7968 7.98254 25.4561 7.98254C18.8004 7.98254 15.42 10.0159 14.6723 10.5326C14.6229 10.5629 14.5766 10.5981 14.5342 10.6376C14.5298 10.642 14.5239 10.6446 14.5177 10.6451C14.3983 10.7494 14.3025 10.8779 14.2367 11.0221C14.1709 11.1663 14.1365 11.3229 14.136 11.4814C14.138 11.63 14.1694 11.7767 14.2282 11.9132C14.2871 12.0496 14.3723 12.1731 14.479 12.2766C14.5857 12.3801 14.7117 12.4615 14.8499 12.5161C14.9881 12.5708 15.1357 12.5977 15.2843 12.5952C15.5224 12.595 15.7548 12.522 15.9503 12.3859C15.9825 12.3619 18.8919 10.2244 25.4583 10.2244C32.0248 10.2244 34.9499 12.3544 34.9814 12.3702C35.1811 12.5183 35.4236 12.5972 35.6721 12.5952C35.8209 12.5975 35.9686 12.5704 36.1068 12.5154C36.245 12.4605 36.371 12.3788 36.4775 12.275C36.5841 12.1712 36.6691 12.0475 36.7277 11.9107C36.7863 11.774 36.8173 11.6271 36.8189 11.4784C36.819 11.2556 36.7525 11.0379 36.6279 10.8532C36.5034 10.6685 36.3265 10.5253 36.1199 10.4419Z" fill="black"/>
</svg>
