<svg width="19" height="18" viewBox="0 0 19 18" fill="none" xmlns="http://www.w3.org/2000/svg">
<circle cx="9.18334" cy="8.87539" r="8.87539" fill="black"/>
<path d="M4.56799 8.69782C4.56799 8.48889 4.72584 8.31622 4.93062 8.2889L4.98756 8.28513L12.3629 8.28546L9.69843 5.67534C9.53423 5.51452 9.53365 5.25322 9.69715 5.09171C9.84578 4.94488 10.0788 4.93107 10.2434 5.05059L10.2905 5.09045L13.675 8.40516C13.6966 8.42635 13.7154 8.4493 13.7314 8.47352C13.7359 8.48082 13.7405 8.48828 13.7448 8.49589C13.7488 8.50241 13.7524 8.50918 13.7559 8.51603C13.7606 8.526 13.7652 8.53629 13.7694 8.5468C13.7728 8.5549 13.7757 8.56277 13.7783 8.57071C13.7814 8.58056 13.7844 8.59105 13.787 8.6017C13.7889 8.60914 13.7904 8.6163 13.7917 8.62349C13.7936 8.63418 13.7952 8.64524 13.7963 8.65644C13.7973 8.66498 13.7979 8.67344 13.7982 8.68191C13.7983 8.68704 13.7984 8.69242 13.7984 8.69782L13.7982 8.7138C13.7979 8.7219 13.7973 8.73 13.7965 8.73807L13.7984 8.69782C13.7984 8.72386 13.7959 8.74934 13.7913 8.77404C13.7902 8.77994 13.7889 8.786 13.7874 8.79203C13.7845 8.80446 13.781 8.81642 13.777 8.82815C13.7751 8.83397 13.7728 8.8402 13.7704 8.84638C13.7655 8.8588 13.7602 8.87064 13.7543 8.88217C13.7516 8.88759 13.7485 8.89326 13.7453 8.89888C13.7401 8.90805 13.7347 8.91676 13.729 8.92525C13.725 8.93126 13.7205 8.93751 13.7158 8.94367L13.7122 8.94843C13.7009 8.96295 13.6886 8.97672 13.6755 8.98963L13.675 8.99001L10.2905 12.3053C10.1263 12.4661 9.86069 12.4656 9.69718 12.3041C9.54853 12.1572 9.53547 11.9279 9.65768 11.7666L9.6984 11.7204L12.3618 9.11083L4.98756 9.1105C4.75584 9.1105 4.56799 8.92574 4.56799 8.69782Z" fill="white"/>
</svg>
